<svg xmlns="http://www.w3.org/2000/svg" viewBox="0 0 48 48">
  <defs>
    <linearGradient id="fx-gradient" x1="0%" y1="0%" x2="100%" y2="100%">
      <stop offset="0%" style="stop-color:#9f55ff;stop-opacity:1" />
      <stop offset="100%" style="stop-color:#652e93;stop-opacity:1" />
    </linearGradient>
  </defs>
  <path fill="url(#fx-gradient)" d="M42 6H6C3.79 6 2 7.79 2 10v28c0 2.21 1.79 4 4 4h36c2.21 0 4-1.79 4-4V10c0-2.21-1.79-4-4-4z"/>
  <path fill="#ffffff" d="M14 18h8v2h-6v4h5v2h-5v8h-2V18zm14 0l4 6 4-6h2.5L34 24l4.5 6h-2.5l-3.5-5-3.5 5H26l4.5-6L26 18h2z"/>
</svg>
