<svg xmlns="http://www.w3.org/2000/svg" viewBox="0 0 100 100" fill="none">
  <!-- Top diamond -->
  <path d="M40 96L-2 48L40 0L82 48L40 96Z" fill="#d479d4"/>
  <!-- Main Body -->
  <path d="M53.999 0L97.999 48L53.999 96L34.4767 74.7029C33.0748 73.1736 33.0748 70.8264 34.4767 69.2971L51.5214 50.7029C52.9232 49.1736 52.9232 46.8264 51.5214 45.2971L34.4767 26.7029C33.0748 25.1736 33.0748 22.8264 34.4767 21.2971L53.999 0Z" fill="#a435a4"/>
  <!-- Fold/Shadow -->
  <path d="M73.0514 27.2167C74.6367 25.4872 77.3633 25.4872 78.9486 27.2167L98 48L78.9486 68.7833C77.3633 70.5128 74.6367 70.5128 73.0514 68.7833L57.7165 52.0543C55.6137 49.7604 55.6137 46.2396 57.7165 43.9457L73.0514 27.2167Z" fill="#6c1e6c"/>
</svg>