<?xml version="1.0" encoding="UTF-8"?>
<!DOCTYPE svg PUBLIC "-//W3C//DTD SVG 1.1//EN" "http://www.w3.org/Graphics/SVG/1.1/DTD/svg11.dtd">
<svg xmlns="http://www.w3.org/2000/svg" version="1.1" width="384px" height="384px" style="shape-rendering:geometricPrecision; text-rendering:geometricPrecision; image-rendering:optimizeQuality; fill-rule:evenodd; clip-rule:evenodd" xmlns:xlink="http://www.w3.org/1999/xlink">
<g><path style="opacity:1" fill="#dd4124" d="M 13.5,-0.5 C 132.167,-0.5 250.833,-0.5 369.5,-0.5C 376.5,1.83333 381.167,6.5 383.5,13.5C 383.5,132.167 383.5,250.833 383.5,369.5C 381.167,376.5 376.5,381.167 369.5,383.5C 250.833,383.5 132.167,383.5 13.5,383.5C 6.5,381.167 1.83333,376.5 -0.5,369.5C -0.5,250.833 -0.5,132.167 -0.5,13.5C 1.83333,6.5 6.5,1.83333 13.5,-0.5 Z"/></g>
<g><path style="opacity:1" fill="#f7d5cf" d="M 213.5,121.5 C 197.578,120.516 181.578,120.183 165.5,120.5C 165.737,121.791 165.404,122.791 164.5,123.5C 164.5,122.167 164.5,120.833 164.5,119.5C 181.201,118.848 197.534,119.515 213.5,121.5 Z"/></g>
<g><path style="opacity:1" fill="#f7d4ce" d="M 235.5,120.5 C 249.99,119.504 264.657,119.171 279.5,119.5C 279.5,120.833 279.5,122.167 279.5,123.5C 278.596,122.791 278.263,121.791 278.5,120.5C 264.167,120.5 249.833,120.5 235.5,120.5 Z"/></g>
<g><path style="opacity:1" fill="#fefcfc" d="M 73.5,119.5 C 89.1702,119.333 104.837,119.5 120.5,120C 132.224,122.723 139.724,129.89 143,141.5C 143.667,171.167 143.667,200.833 143,230.5C 142.873,246.301 135.373,256.467 120.5,261C 104.837,261.5 89.1702,261.667 73.5,261.5C 73.5,214.167 73.5,166.833 73.5,119.5 Z"/></g>
<g><path style="opacity:1" fill="#fefdfc" d="M 213.5,121.5 C 218.139,168.14 222.472,214.807 226.5,261.5C 217.5,261.5 208.5,261.5 199.5,261.5C 199.014,253.842 198.68,246.175 198.5,238.5C 192.5,238.5 186.5,238.5 180.5,238.5C 179.737,246.142 179.403,253.809 179.5,261.5C 170.167,261.5 160.833,261.5 151.5,261.5C 155.55,215.469 159.883,169.469 164.5,123.5C 165.404,122.791 165.737,121.791 165.5,120.5C 181.578,120.183 197.578,120.516 213.5,121.5 Z"/></g>
<g><path style="opacity:1" fill="#fefdfc" d="M 320.5,261.5 C 320.667,227.832 320.5,194.165 320,160.5C 319.178,163.117 318.678,165.784 318.5,168.5C 313.424,199.445 308.757,230.445 304.5,261.5C 295.833,261.5 287.167,261.5 278.5,261.5C 272.843,229.224 267.51,196.891 262.5,164.5C 262.291,163.078 261.791,161.745 261,160.5C 260.5,194.165 260.333,227.832 260.5,261.5C 252.167,261.5 243.833,261.5 235.5,261.5C 235.5,214.5 235.5,167.5 235.5,120.5C 249.833,120.5 264.167,120.5 278.5,120.5C 278.263,121.791 278.596,122.791 279.5,123.5C 282.587,149.967 286.42,176.3 291,202.5C 294.572,175.163 298.239,147.83 302,120.5C 316.755,119.509 331.588,119.176 346.5,119.5C 346.5,166.833 346.5,214.167 346.5,261.5C 337.833,261.5 329.167,261.5 320.5,261.5 Z"/></g>
<g><path style="opacity:1" fill="#df4b2e" d="M 189.5,144.5 C 191.736,168.136 193.736,191.802 195.5,215.5C 191.5,215.5 187.5,215.5 183.5,215.5C 183.5,214.167 183.5,212.833 183.5,211.5C 184.46,191.14 185.793,170.806 187.5,150.5C 188.167,148.5 188.833,146.5 189.5,144.5 Z"/></g>
<g><path style="opacity:1" fill="#dd4528" d="M 102.5,144.5 C 105.941,144.301 109.274,144.801 112.5,146C 113.701,146.903 114.535,148.069 115,149.5C 115.667,176.833 115.667,204.167 115,231.5C 114.535,232.931 113.701,234.097 112.5,235C 109.274,236.199 105.941,236.699 102.5,236.5C 102.5,205.833 102.5,175.167 102.5,144.5 Z"/></g>
<g><path style="opacity:1" fill="#ea8673" d="M 189.5,144.5 C 188.833,146.5 188.167,148.5 187.5,150.5C 187.192,148.076 187.526,145.743 188.5,143.5C 189.107,143.624 189.44,143.957 189.5,144.5 Z"/></g>
<g><path style="opacity:1" fill="#f3beb4" d="M 262.5,164.5 C 261.833,196.833 261.167,229.167 260.5,261.5C 260.333,227.832 260.5,194.165 261,160.5C 261.791,161.745 262.291,163.078 262.5,164.5 Z"/></g>
<g><path style="opacity:1" fill="#ea8977" d="M 320.5,261.5 C 319.833,230.5 319.167,199.5 318.5,168.5C 318.678,165.784 319.178,163.117 320,160.5C 320.5,194.165 320.667,227.832 320.5,261.5 Z"/></g>
<g><path style="opacity:1" fill="#eea091" d="M 183.5,211.5 C 183.5,212.833 183.5,214.167 183.5,215.5C 187.5,215.5 191.5,215.5 195.5,215.5C 191.366,216.485 187.032,216.818 182.5,216.5C 182.216,214.585 182.549,212.919 183.5,211.5 Z"/></g>
<g><path style="opacity:1" fill="#fefdfd" d="M 34.5,237.5 C 44.1667,237.5 53.8333,237.5 63.5,237.5C 63.5,245.5 63.5,253.5 63.5,261.5C 53.8333,261.5 44.1667,261.5 34.5,261.5C 34.5,253.5 34.5,245.5 34.5,237.5 Z"/></g>
</svg>
