<svg xmlns="http://www.w3.org/2000/svg" xmlns:xlink="http://www.w3.org/1999/xlink" version="1.1" width="256" height="256" viewBox="0 0 500 500" xml:space="preserve">
<g transform="matrix(1.5234258708 0 0 1.5263931571 250 250)" id="YqH2lrGepiIDnMRpVrWDr">
<path style="stroke: rgb(0,0,0); stroke-width: 0; stroke-dasharray: none; stroke-linecap: butt; stroke-dashoffset: 0; stroke-linejoin: miter; stroke-miterlimit: 4; fill: rgb(8,12,15); fill-rule: nonzero; opacity: 1;" transform=" translate(0, 0)" d="M -41.30555 119.37513 L -158.39103999999998 0.44897000000000276 L 0.9842900000000157 -159.70432 L 38.72900000000001 -116.20097999999999 L -76.30942999999999 -0.14143999999998869 L -58.36086999999999 16.311320000000013 L 32.90126000000001 -122.54615 L 158.39105 -0.14142999999999972 L -0.24936999999999898 159.70434 L 0.984290000000001 157.97067 L -0.24936999999999898 159.20433 L -48.045049999999996 113.55717999999999 L 69.37744 -0.14143000000001393 L 47.94933 -21.898190000000014 z" stroke-linecap="round"/>
</g>
<g transform="matrix(1.3761427038 0 0 1.3761427038 244.724230958 246.073312775)" id="y13XGzv2eEpD5MehNJKBq">
<linearGradient id="SVGID_1986" gradientUnits="userSpaceOnUse" gradientTransform="matrix(1 0 0 1 -158.391045 -159.17556)" x1="29.302325581395337" y1="85.68718790697676" x2="296.3518574418605" y2="189.87323441860465">
<stop offset="0%" style="stop-color:#F3F3F3;stop-opacity: 1"/>
<stop offset="43.65158076715301%" style="stop-color:#F3F3F3;stop-opacity: 1"/>
<stop offset="100%" style="stop-color:#A685B5;stop-opacity: 1"/>
</linearGradient>
<path style="stroke: rgb(0,0,0); stroke-width: 0; stroke-dasharray: none; stroke-linecap: butt; stroke-dashoffset: 0; stroke-linejoin: miter; stroke-miterlimit: 4; fill: url(#SVGID_1986); fill-rule: nonzero; opacity: 1;" transform=" translate(0, 0)" d="M -42.4147 117.36768 L -158.39104 -0.07980000000000587 L 0.2047200000000089 -159.17556000000002 L -1.028939999999991 -157.44189000000003 L 0.2047200000000089 -158.67555000000002 L 30.782080000000008 -128.09819000000002 L -94.89032999999999 2.8533999999999935 L -48.911359999999995 47.36540999999999 L 40.980430000000005 -116.94172 L 158.39105 -0.6702200000000005 L -0.24936999999999898 159.17555 L 0.984290000000001 157.44188 L -0.24936999999999898 158.67553999999998 L -30.826729999999998 128.09817999999999 L 97.19165000000001 0.0797799999999711 L 49.94710000000001 -47.164770000000026 z" stroke-linecap="round"/>
</g>
</svg>